<?xml version="1.0" encoding="utf-8"?><!-- Uploaded to: SVG Repo, www.svgrepo.com, Generator: SVG Repo Mixer Tools -->
<svg width="800px" height="800px" viewBox="-5.79 0 59.434 59.434" xmlns="http://www.w3.org/2000/svg">
  <path id="alarm_clock" data-name="alarm clock" d="M597.1,532.916,584.76,545.254l1.8,1.8,13.085-13.084V519.99H597.1Zm-1.086-25.081h4.921a4.561,4.561,0,0,0,4.55-4.552v-1.025a4.56,4.56,0,0,0-4.55-4.553l-4.921,0a4.559,4.559,0,0,0-4.552,4.551v1.025A4.562,4.562,0,0,0,596.012,507.835ZM594,502.258a2.034,2.034,0,0,1,2.01-2.01h4.921a2.032,2.032,0,0,1,2.007,2.01v1.025a2.032,2.032,0,0,1-2.007,2.009h-4.921a2.033,2.033,0,0,1-2.01-2.009Zm21.708,14.39,3.16-3.162a1.276,1.276,0,0,0,0-1.8h0a1.278,1.278,0,0,0-1.8,0l-3.213,3.214a24.144,24.144,0,1,0,1.854,1.746Zm-17.238,37.945a21.381,21.381,0,1,1,21.382-21.378A21.4,21.4,0,0,1,598.472,554.593Z" transform="translate(-574.547 -497.705)" fill="#2c3233"/>
</svg>