<?xml version="1.0" encoding="iso-8859-1"?>
<!-- Uploaded to: SVG Repo, www.svgrepo.com, Generator: SVG Repo Mixer Tools -->
<svg fill="#000000" height="800px" width="800px" version="1.1" id="Layer_1" xmlns="http://www.w3.org/2000/svg" xmlns:xlink="http://www.w3.org/1999/xlink" 
	 viewBox="0 0 512 512" xml:space="preserve">
<g>
	<g>
		<g>
			<path d="M104.188,202.619h104.685v-0.001c23.586,0,42.786,19.149,42.867,42.717c0.02,5.872,8.521,5.696,8.521,0.149
				c0-23.637,19.23-42.867,42.867-42.867h104.685c3.383,0,6.124-2.742,6.124-6.124V35.544c0-10.146-8.225-18.371-18.371-18.371
				H116.435c-10.146,0-18.371,8.225-18.371,18.371v160.952C98.064,199.877,100.805,202.619,104.188,202.619z M179.17,70.437h153.661
				c6.763,0,12.248,5.483,12.248,12.248s-5.484,12.248-12.248,12.248H179.17c-6.764,0-12.248-5.483-12.248-12.248
				C166.923,75.92,172.406,70.437,179.17,70.437z M179.17,139.59h117.168c6.764,0,12.248,5.483,12.248,12.248
				s-5.484,12.248-12.248,12.248H179.17c-6.764,0-12.248-5.483-12.248-12.248S172.406,139.59,179.17,139.59z"/>
			<path d="M426.618,227.113H303.127c-10.146,0-18.371,8.226-18.371,18.371c0,37.986-57.511,37.986-57.511,0
				c0-10.146-8.225-18.371-18.371-18.371H85.382c-10.146,0-18.371,8.226-18.371,18.371v194.164
				c0,30.426,24.754,55.179,55.179,55.179h267.62c30.427,0,55.18-24.754,55.18-55.179V245.485
				C444.99,235.339,436.764,227.113,426.618,227.113z M213.053,336.409h19.103c6.764,0,12.248,5.483,12.248,12.248
				s-5.483,12.248-12.248,12.248h-19.103c-6.764,0-12.248-5.483-12.248-12.248S206.289,336.409,213.053,336.409z M165.363,416.59
				h-19.103c-6.764,0-12.248-5.483-12.248-12.248c0-6.764,5.483-12.248,12.248-12.248h19.103c6.764,0,12.248,5.483,12.248,12.248
				C177.611,411.107,172.128,416.59,165.363,416.59z M165.363,360.904h-19.103c-6.764,0-12.248-5.483-12.248-12.248
				s5.483-12.248,12.248-12.248h19.103c6.764,0,12.248,5.483,12.248,12.248S172.128,360.904,165.363,360.904z M298.948,416.59
				h-85.895c-6.764,0-12.248-5.483-12.248-12.248c0-6.764,5.483-12.248,12.248-12.248h85.895c6.764,0,12.248,5.483,12.248,12.248
				C311.196,411.107,305.711,416.59,298.948,416.59z M298.948,360.904h-19.104c-6.763,0-12.248-5.483-12.248-12.248
				s5.484-12.248,12.248-12.248h19.104c6.764,0,12.248,5.483,12.248,12.248S305.711,360.904,298.948,360.904z M365.74,416.59
				h-19.104c-6.763,0-12.248-5.483-12.248-12.248c0-6.764,5.484-12.248,12.248-12.248h19.104c6.763,0,12.248,5.483,12.248,12.248
				C377.988,411.107,372.505,416.59,365.74,416.59z M365.74,360.904h-19.104c-6.763,0-12.248-5.483-12.248-12.248
				s5.484-12.248,12.248-12.248h19.104c6.763,0,12.248,5.483,12.248,12.248S372.505,360.904,365.74,360.904z"/>
			<path d="M493.629,227.112h-18.02c-3.382,0-6.124,2.742-6.124,6.124v127.668c0,3.383,2.742,6.124,6.124,6.124h18.02
				c10.146,0,18.371-8.225,18.371-18.371V245.484C512,235.338,503.775,227.112,493.629,227.112z"/>
			<path d="M40.582,227.112H18.371C8.225,227.112,0,235.338,0,245.484v103.173c0,10.146,8.225,18.371,18.371,18.371h22.211
				c3.382,0,6.124-2.741,6.124-6.124V233.236C46.706,229.854,43.965,227.112,40.582,227.112z"/>
		</g>
	</g>
</g>
</svg>